<?xml version="1.0" encoding="UTF-8" standalone="no"?>
<!-- Created with Inkscape (http://www.inkscape.org/) -->

<svg
   xmlns:dc="http://purl.org/dc/elements/1.1/"
   xmlns:cc="http://creativecommons.org/ns#"
   xmlns:rdf="http://www.w3.org/1999/02/22-rdf-syntax-ns#"
   xmlns:svg="http://www.w3.org/2000/svg"
   xmlns="http://www.w3.org/2000/svg"
   version="1.1"
   width="500"
   height="51.935444"
   id="svg2">
  <metadata
     id="metadata21">
    <rdf:RDF>
      <cc:Work
         rdf:about="">
        <dc:format>image/svg+xml</dc:format>
        <dc:type
           rdf:resource="http://purl.org/dc/dcmitype/StillImage" />
        <dc:title></dc:title>
      </cc:Work>
    </rdf:RDF>
  </metadata>
  <defs
     id="defs4" />
  <g
     transform="matrix(1.3736922,0,0,1.3736922,-121.67368,-298.38569)"
     id="layer1">
    <g
       id="text2993"
       style="fill:#00b29f;fill-opacity:1;stroke:#ffffff;stroke-width:1;stroke-linecap:butt;stroke-linejoin:miter;stroke-miterlimit:4;stroke-opacity:1">
      <path
         d="m 118.48386,253.97218 -8.24267,0 -8.66602,-22.88525 -3.984373,22.88525 -8.516601,0 6.27539,-36.25781 8.317384,0 8.64111,22.88525 3.95948,-22.88525 8.5166,0 -6.3003,36.25781"
         id="path2990"
         style="fill:#00b29f;stroke:#ffffff" />
      <path
         d="m 148.5659,238.60744 -13.32276,0 -1.51904,8.64111 15.76318,0 -1.17041,6.72363 -24.27978,0 6.27539,-36.25781 24.32959,0 -1.17041,6.74854 -15.78809,0 -1.34473,7.64502 13.34766,0 -1.1206,6.49951"
         id="path2992"
         style="fill:#00b29f;stroke:#ffffff" />
      <path
         d="m 184.5864,240.3506 7.57032,-22.63623 8.61621,0 -13.14844,36.25781 -8.81543,0 -1.46924,-20.54443 -7.81934,20.54443 -8.81542,0 -1.81788,-36.25781 8.29248,0 0.49805,22.53662 8.31738,-22.53662 7.24659,0 1.34472,22.63623"
         id="path2994"
         style="fill:#00b29f;stroke:#ffffff" />
    </g>
    <g
       id="text2997"
       style="fill:#ffffff;fill-opacity:1;stroke:none">
      <path
         d="m 227.66663,243.74959 c -0.10257,2.22657 -0.70316,4.19678 -1.80176,5.91064 -1.09866,1.69922 -2.64407,3.01758 -4.63623,3.95508 -1.97756,0.9375 -4.24074,1.40625 -6.78955,1.40625 -4.20412,0 -7.51466,-1.36963 -9.93164,-4.10889 -2.417,-2.73925 -3.62549,-6.60643 -3.62549,-11.60156 l 0,-1.58203 c 0,-3.13475 0.54199,-5.874 1.62597,-8.21777 1.09863,-2.35837 2.67334,-4.17478 4.72413,-5.44922 2.05077,-1.28903 4.42381,-1.93356 7.11914,-1.9336 3.88181,4e-5 7.00193,1.02543 9.36035,3.07618 2.35837,2.03616 3.6987,4.84865 4.02099,8.4375 l -7.69043,0 c -0.0586,-1.94822 -0.54933,-3.34715 -1.47216,-4.19678 -0.92287,-0.84958 -2.32912,-1.27439 -4.21875,-1.27442 -1.91896,3e-5 -3.32521,0.7178 -4.21875,2.15333 -0.89357,1.43556 -1.36232,3.72804 -1.40625,6.87744 l 0,2.26318 c -1e-5,3.4131 0.42479,5.85206 1.27441,7.31689 0.86425,1.46485 2.34374,2.19728 4.43848,2.19727 1.77244,1e-5 3.12742,-0.41747 4.06494,-1.25244 0.93748,-0.83495 1.43552,-2.16064 1.49414,-3.97705 l 7.66846,0"
         id="path2997"
         style="fill:#ffffff" />
      <path
         d="m 258.05481,254.58211 -7.66846,0 0,-13.35938 -11.35986,0 0,13.35938 -7.7124,0 0,-31.99219 7.7124,0 0,12.7002 11.35986,0 0,-12.7002 7.66846,0 0,31.99219"
         id="path2999"
         style="fill:#ffffff" />
      <path
         d="m 281.56555,248.60555 -10.56885,0 -1.8457,5.97656 -8.23975,0 11.7334,-31.99219 7.25098,0 11.82129,31.99219 -8.28369,0 -1.86768,-5.97656 m -8.72314,-5.95459 6.87744,0 -3.44971,-11.0962 -3.42773,11.0962"
         id="path3001"
         style="fill:#ffffff" />
      <path
         d="m 301.7804,248.64949 13.42529,0 0,5.93262 -21.1377,0 0,-31.99219 7.71241,0 0,26.05957"
         id="path3003"
         style="fill:#ffffff" />
      <path
         d="m 326.21399,248.64949 13.42529,0 0,5.93262 -21.13769,0 0,-31.99219 7.7124,0 0,26.05957"
         id="path3005"
         style="fill:#ffffff" />
      <path
         d="m 362.77649,241.02498 -12.12891,0 0,7.62451 14.32617,0 0,5.93262 -22.03857,0 0,-31.99219 22.08252,0 0,5.95459 -14.37012,0 0,6.74561 12.12891,0 0,5.73486"
         id="path3007"
         style="fill:#ffffff" />
      <path
         d="m 394.87854,254.58211 -7.66846,0 -11.33789,-19.90723 0,19.90723 -7.7124,0 0,-31.99219 7.7124,0 11.31592,19.90723 0,-19.90723 7.69043,0 0,31.99219"
         id="path3009"
         style="fill:#ffffff" />
      <path
         d="m 425.99182,250.62703 c -1.18655,1.31836 -2.92239,2.38037 -5.20752,3.18603 -2.28518,0.80567 -4.79006,1.2085 -7.51465,1.2085 -4.18946,0 -7.53663,-1.28174 -10.0415,-3.84521 -2.50489,-2.56347 -3.84522,-6.13037 -4.021,-10.70069 l -0.022,-2.76855 c 0,-3.1494 0.55664,-5.89598 1.66992,-8.23975 1.11328,-2.35837 2.70263,-4.16745 4.76807,-5.42724 2.08007,-1.27439 4.48241,-1.91159 7.20703,-1.91163 3.98436,4e-5 7.07517,0.91556 9.27246,2.74659 2.21189,1.81643 3.50095,4.53371 3.86719,8.15185 l -7.42676,0 c -0.26369,-1.78708 -0.83498,-3.0615 -1.71387,-3.82324 -0.87892,-0.76169 -2.12404,-1.14255 -3.73535,-1.14258 -1.93361,3e-5 -3.42774,0.82034 -4.48242,2.46094 -1.0547,1.64065 -1.58936,3.98439 -1.604,7.03125 l 0,1.93359 c -1e-5,3.19337 0.54198,5.59572 1.62597,7.20703 1.09862,1.59669 2.81981,2.39503 5.16358,2.39502 2.00681,1e-5 3.50095,-0.44677 4.48242,-1.34033 l 0,-4.96582 -5.36133,0 0,-5.29541 13.07373,0 0,13.13965"
         id="path3011"
         style="fill:#ffffff" />
      <path
         d="m 450.31555,241.02498 -12.1289,0 0,7.62451 14.32617,0 0,5.93262 -22.03858,0 0,-31.99219 22.08252,0 0,5.95459 -14.37011,0 0,6.74561 12.1289,0 0,5.73486"
         id="path3013"
         style="fill:#ffffff" />
    </g>
  </g>
</svg>
